<mxfile host="app.diagrams.net" modified="2024-03-19T08:32:46.100Z" agent="Mozilla/5.0 (Windows NT 10.0; Win64; x64) AppleWebKit/537.36 (KHTML, like Gecko) Chrome/122.0.0.0 Safari/537.36" etag="fKsWVU57DphJam3NS1KT" version="24.0.7" type="github">
  <diagram name="Page-1" id="74e2e168-ea6b-b213-b513-2b3c1d86103e">
    <mxGraphModel dx="875" dy="435" grid="1" gridSize="10" guides="1" tooltips="1" connect="1" arrows="1" fold="1" page="1" pageScale="1" pageWidth="1100" pageHeight="850" background="none" math="0" shadow="0">
      <root>
        <mxCell id="0" />
        <mxCell id="1" parent="0" />
        <mxCell id="tGnh44Fj1rFuFUk2803V-1" value="&lt;h2&gt;&lt;span style=&quot;font-size: 14px;&quot;&gt;机具绑定流程&lt;/span&gt;&lt;/h2&gt;" style="swimlane;html=1;childLayout=stackLayout;startSize=20;rounded=0;shadow=0;labelBackgroundColor=none;strokeWidth=1;fontFamily=Verdana;fontSize=8;align=center;fillColor=#B3B3B3;" vertex="1" parent="1">
          <mxGeometry x="250" y="10" width="520" height="380" as="geometry" />
        </mxCell>
        <mxCell id="tGnh44Fj1rFuFUk2803V-2" value="分支机构" style="swimlane;html=1;startSize=20;" vertex="1" parent="tGnh44Fj1rFuFUk2803V-1">
          <mxGeometry y="20" width="250" height="360" as="geometry" />
        </mxCell>
        <mxCell id="tGnh44Fj1rFuFUk2803V-3" value="" style="edgeStyle=orthogonalEdgeStyle;rounded=0;orthogonalLoop=1;jettySize=auto;html=1;entryX=0.5;entryY=0;entryDx=0;entryDy=0;" edge="1" parent="tGnh44Fj1rFuFUk2803V-2" source="tGnh44Fj1rFuFUk2803V-4" target="tGnh44Fj1rFuFUk2803V-6">
          <mxGeometry relative="1" as="geometry" />
        </mxCell>
        <mxCell id="tGnh44Fj1rFuFUk2803V-4" value="开始" style="ellipse;whiteSpace=wrap;html=1;rounded=0;shadow=0;labelBackgroundColor=none;strokeWidth=1;fontFamily=Verdana;fontSize=8;align=center;" vertex="1" parent="tGnh44Fj1rFuFUk2803V-2">
          <mxGeometry x="54" y="40" width="30" height="30" as="geometry" />
        </mxCell>
        <mxCell id="tGnh44Fj1rFuFUk2803V-5" style="edgeStyle=orthogonalEdgeStyle;rounded=0;orthogonalLoop=1;jettySize=auto;html=1;entryX=0.5;entryY=0;entryDx=0;entryDy=0;" edge="1" parent="tGnh44Fj1rFuFUk2803V-2" source="tGnh44Fj1rFuFUk2803V-6" target="tGnh44Fj1rFuFUk2803V-7">
          <mxGeometry relative="1" as="geometry" />
        </mxCell>
        <mxCell id="tGnh44Fj1rFuFUk2803V-6" value="客户经理" style="rounded=1;whiteSpace=wrap;html=1;shadow=0;labelBackgroundColor=none;strokeWidth=1;fontFamily=Verdana;fontSize=8;align=center;" vertex="1" parent="tGnh44Fj1rFuFUk2803V-2">
          <mxGeometry x="19" y="110" width="100" height="40" as="geometry" />
        </mxCell>
        <mxCell id="tGnh44Fj1rFuFUk2803V-7" value="设备绑定" style="rounded=1;whiteSpace=wrap;html=1;shadow=0;labelBackgroundColor=none;strokeWidth=1;fontFamily=Verdana;fontSize=8;align=center;" vertex="1" parent="tGnh44Fj1rFuFUk2803V-2">
          <mxGeometry x="19" y="190" width="100" height="40" as="geometry" />
        </mxCell>
        <mxCell id="tGnh44Fj1rFuFUk2803V-8" value="商户现场" style="swimlane;html=1;startSize=20;" vertex="1" parent="tGnh44Fj1rFuFUk2803V-1">
          <mxGeometry x="250" y="20" width="270" height="360" as="geometry" />
        </mxCell>
        <mxCell id="tGnh44Fj1rFuFUk2803V-9" value="" style="edgeStyle=orthogonalEdgeStyle;rounded=0;orthogonalLoop=1;jettySize=auto;html=1;" edge="1" parent="tGnh44Fj1rFuFUk2803V-8" source="tGnh44Fj1rFuFUk2803V-10" target="tGnh44Fj1rFuFUk2803V-12">
          <mxGeometry relative="1" as="geometry" />
        </mxCell>
        <mxCell id="tGnh44Fj1rFuFUk2803V-10" value="互金初审" style="rounded=1;whiteSpace=wrap;html=1;shadow=0;labelBackgroundColor=none;strokeWidth=1;fontFamily=Verdana;fontSize=8;align=center;" vertex="1" parent="tGnh44Fj1rFuFUk2803V-8">
          <mxGeometry x="85" y="120" width="100" height="40" as="geometry" />
        </mxCell>
        <mxCell id="tGnh44Fj1rFuFUk2803V-11" value="" style="edgeStyle=orthogonalEdgeStyle;rounded=0;orthogonalLoop=1;jettySize=auto;html=1;" edge="1" parent="tGnh44Fj1rFuFUk2803V-8" source="tGnh44Fj1rFuFUk2803V-12" target="tGnh44Fj1rFuFUk2803V-13">
          <mxGeometry relative="1" as="geometry" />
        </mxCell>
        <mxCell id="tGnh44Fj1rFuFUk2803V-12" value="互金机具管理员&lt;div&gt;（现场领取）&lt;/div&gt;" style="rounded=1;whiteSpace=wrap;html=1;shadow=0;labelBackgroundColor=none;strokeWidth=1;fontFamily=Verdana;fontSize=8;align=center;" vertex="1" parent="tGnh44Fj1rFuFUk2803V-8">
          <mxGeometry x="85" y="220" width="100" height="40" as="geometry" />
        </mxCell>
        <mxCell id="tGnh44Fj1rFuFUk2803V-13" value="结束" style="ellipse;whiteSpace=wrap;html=1;rounded=0;shadow=0;labelBackgroundColor=none;strokeWidth=2;fontFamily=Verdana;fontSize=8;align=center;" vertex="1" parent="tGnh44Fj1rFuFUk2803V-8">
          <mxGeometry x="120" y="300" width="30" height="30" as="geometry" />
        </mxCell>
        <mxCell id="tGnh44Fj1rFuFUk2803V-14" style="edgeStyle=orthogonalEdgeStyle;rounded=0;orthogonalLoop=1;jettySize=auto;html=1;entryX=0;entryY=0.25;entryDx=0;entryDy=0;" edge="1" parent="tGnh44Fj1rFuFUk2803V-1" source="tGnh44Fj1rFuFUk2803V-7" target="tGnh44Fj1rFuFUk2803V-10">
          <mxGeometry relative="1" as="geometry">
            <Array as="points">
              <mxPoint x="170" y="270" />
              <mxPoint x="170" y="150" />
            </Array>
          </mxGeometry>
        </mxCell>
      </root>
    </mxGraphModel>
  </diagram>
</mxfile>
